<svg width="74" height="64" xmlns="http://www.w3.org/2000/svg" xmlns:xlink="http://www.w3.org/1999/xlink" xml:space="preserve" overflow="hidden"><g transform="translate(-59 -189)"><g><path d="M0 0C-2.78482-1.96853-6.18036-3.12544-9.84666-3.12544-19.2922-3.12544-26.9494 4.54978-26.9494 14.0172-26.9494 23.4847-19.2922 31.1599-9.84666 31.1599-6.18435 31.1599-2.79081 30.005-0.00864851 28.0398L-0.927387 27.1191C-3.46672 28.8594-6.53827 29.8779-9.84666 29.8779-18.5857 29.8779-25.6708 22.7769-25.6708 14.0172-25.6708 5.25763-18.5857-1.84346-9.84666-1.84346-6.53428-1.84346-3.46074-0.822274-0.918738 0.920734ZM-9.84666 1.64388C-16.6644 1.64388-22.1914 7.18359-22.1914 14.0172-22.1914 20.8509-16.6644 26.3906-9.84666 26.3906-6.43649 26.3906-3.3503 25.0042-1.11566 22.7635L4.70346 28.5966C0.979943 32.3301-4.16459 34.6393-9.84666 34.6393-21.2095 34.6393-30.4208 25.4067-30.4208 14.0172-30.4208 2.62782-21.2095-6.60547-9.84666-6.60547-4.16725-6.60547 0.975286-4.29764 4.69814-0.567475L-1.12098 5.26561C-3.35496 3.02764-6.43981 1.64388-9.84666 1.64388" fill="#162038" transform="matrix(1 0 0 -1.00258 97.0546 234.941)"/></g><path d="M0 0 3.08419 0 6.09787 3.02033 4.55577 4.56641Z" fill="#162038" transform="matrix(1 0 0 -1.00258 107.799 241.565)"/><g><path d="M0 0 7.19955 0C7.08446 0.983934 6.34269 2.00579 5.44324 2.36703L-2.46483 5.53638C-3.36893 5.89962-4.66088 5.63417-5.34944 4.94429L-11.2351-0.948675C-15.2526-4.97555-15.2526-11.5045-11.2351-15.5327L-3.59379-23.1907-9.25856-28.8687-6.17371-28.8687-0.576789-23.2598-2.63314-21.1982-1.60397-20.167 4.18388-25.9695C4.64292-26.4298 5.5417-26.8024 6.19167-26.8031L14.4038-26.8064 6.17371-18.5537 6.17504-13.5469C6.17504-12.8963 5.80382-11.9955 5.34478-11.5358L-2.35106-3.82331C-2.75289-3.42082-2.75289-2.76752-2.35106-2.36504L0-0.00598743ZM-2.0497-8.24802 4.11603-14.4277 4.11603-16.4907-1.42567-10.9364C-1.76962-10.5911-2.0497-9.91585-2.0497-9.42754Z" fill="#162038" transform="matrix(1 0 0 -1.00258 111.892 212.622)"/><path d="M0 0C-0.041912 2.44021-2.05036 4.38413-4.48525 4.34155-5.70003 4.32093-6.78975 3.80734-7.57343 2.99704L-5.32083 2.09361C-5.05273 2.20737-4.75868 2.27389-4.44933 2.27988-3.15072 2.3025-2.07963 1.26534-2.05702-0.0359246-2.03506-1.33719-3.06889-2.41094-4.36683-2.43422-5.29888-2.45019-6.11184-1.9193-6.50568-1.13761L-8.68843-1.13761C-8.20744-3.09617-6.42784-4.53249-4.33157-4.4959-1.89669-4.45332 0.041912-2.44021 0 0" fill="#B38248" transform="matrix(1 0 0 -1.00258 123.531 211.481)"/></g></g></svg>